# AST/ASF file generated using VICON BodyLanguage
# -----------------------------------------------
:version 1.10
:name VICON
:units
  mass 1.0
  length 0.45
  angle deg
:documentation
   .ast/.asf automatically generated from VICON data using
   VICON BodyBuilder and BodyLanguage model FoxedUp or BRILLIANT.MOD
:root
   order TX TY TZ RX RY RZ
   axis XYZ
   position 0 0 0  
   orientation 0 0 0 
:bonedata
  begin
     id 1 
     name lhipjoint
     direction 0.537252 -0.787203 0.302774 
     length 2.29576 
     axis 0 0 0  XYZ
  end
  begin
     id 2 
     name lfemur
     direction 0.34202 -0.939693 0  
     length 7.31114  
     axis 0 0 20  XYZ
    dof rx ry rz
    limits (-160.0 20.0)
           (-70.0 70.0)
           (-60.0 70.0)
  end
  begin
     id 3 
     name ltibia
     direction 0.34202 -0.939693 0   
     length 8.36008   
     axis 0 0 20   XYZ
    dof rx
    limits (-10.0 170.0)
  end
  begin
     id 4 
     name lfoot
     direction 0.0969116 -0.266263 0.959016   
     length 2.16704   
     axis -90 7.62852e-016 20   XYZ
    dof rx rz
    limits (-45.0 90.0)
           (-70.0 20.0)
  end
  begin
     id 5 
     name ltoes
     direction 1.53563e-011 -4.21779e-011 1   
     length 1.08338   
     axis -90 7.62852e-016 20   XYZ
    dof rx
    limits (-90.0 20.0)
  end
  begin
     id 6 
     name rhipjoint
     direction -0.588228 -0.754791 0.290308   
     length 2.39434  
     axis 0 0 0  XYZ 
  end
  begin
     id 7 
     name rfemur
     direction -0.34202 -0.939693 0   
     length 7.45207   
     axis 0 0 -20   XYZ
    dof rx ry rz
    limits (-160.0 20.0)
           (-70.0 70.0)
           (-70.0 60.0)
  end
  begin
     id 8 
     name rtibia
     direction -0.34202 -0.939693 0   
     length 8.03565   
     axis 0 0 -20   XYZ
    dof rx
    limits (-10.0 170.0)
 end
 begin
     id 9 
     name rfoot
     direction -0.107009 -0.294004 0.949795   
     length 2.11509  
     axis -90 -7.62852e-016 -20   XYZ
    dof rx rz
    limits (-45.0 90.0)
           (-20.0 70.0)
  end
  begin
     id 10 
     name rtoes
     direction -1.53533e-011 -4.22004e-011 1   
     length 1.05493   
     axis -90 -7.62852e-016 -20   XYZ
    dof rx
    limits (-90.0 20.0)
  end
  begin
     id 11 
     name lowerback
     direction -0.0115208 0.997969 -0.0626515   
     length 2.03153   
     axis 0 0 0   XYZ
    dof rx ry rz
    limits (-20.0 45.0)
           (-30.0 30.0)
           (-30.0 30.0)
  end
  begin
     id 12 
     name upperback
     direction -0.00423475 0.999974 -0.00583614   
     length 2.03619   
     axis 0 0 0   XYZ
    dof rx ry rz
    limits (-20.0 45.0)
           (-30.0 30.0)
           (-30.0 30.0)
  end
  begin
     id 13 
     name thorax
     direction 0.00289429 0.999728 0.0231573   
     length 2.03921   
     axis 0 0 0   XYZ
    dof rx ry rz
    limits (-20.0 45.0)
           (-30.0 30.0)
           (-30.0 30.0)
  end
  begin
     id 14 
     name lowerneck
     direction 0.0188995 0.987777 0.154721   
     length 1.78836   
     axis 0 0 0   XYZ
    dof rx ry rz
    limits (-20.0 45.0)
           (-30.0 30.0)
           (-30.0 30.0)
  end
  begin
     id 15 
     name upperneck
     direction -0.00612612 0.992995 -0.118   
     length 1.81789   
     axis 0 0 0   XYZ
    dof rx ry rz
    limits (-20.0 45.0)
           (-30.0 30.0)
           (-30.0 30.0)
  end
  begin
     id 16
     name head
     direction -0.00420226 0.998397 -0.0564482  
     length 1.82234  
     axis 0 0 0   XYZ
    dof rx ry rz
    limits (-20.0 45.0)
           (-30.0 30.0)
           (-30.0 30.0)
  end
  begin
     id 17 
     name lclavicle
     direction 0.916488 0.396539 0.0529676  
     length 3.51732  
     axis 0 0 0   XYZ
    dof ry rz
    limits (-20.0 10.0)
           (0.0 20.0)
  end
  begin
     id 18 
     name lhumerus
     direction 1 -4.4896e-011 8.36962e-028   
     length 5.45077   
     axis 180 -30 -90   XYZ
    dof rx ry rz
    limits (-60.0 90.0)
           (-90.0 90.0)
           (-90.0 90.0)
  end
  begin
     id 19
     name lradius
     direction 1 -4.48962e-011 3.01407e-027   
     length 3.05488   
     axis 180 -30 -90   XYZ
    dof rx
    limits (-10.0 170.0)
  end
  begin
     id 20
     name lwrist
     direction 1 -4.49002e-011 4.72961e-027   
     length 1.52744   
     axis -2.72261e-015 90 90   XYZ
    dof ry
    limits (-180.0 0.0)
 end
  begin
     id 21 
     name lhand
     direction 1 -4.4899e-011 9.45681e-027   
     length 0.638818   
     axis -6.0311e-015 90 90   XYZ
    dof rx rz
    limits (-90.0 90.0)
           (-45.0 45.0)
  end
  begin
     id 22 
     name lfingers
     direction 1 -4.48871e-011 1.88632e-026   
     length 0.515032   
     axis -1.20625e-014 90 90   XYZ
    dof rx
    limits (0.0 90.0)
  end
  begin
     id 23
     name lthumb
     direction 0.707107 -6.34964e-011 0.707107   
     length 0.739485   
     axis -90 45 6.32835e-014   XYZ
    dof rx rz
    limits (-45.0 45.0)
           (-45.0 45.0)
  end
  begin
     id 24 
     name rclavicle
     direction -0.949427 0.303202 0.0815894   
     length 3.76167  
     axis 0 0 0   XYZ 
    dof ry rz
    limits (-10.0 20.0)
           (-20.0 0.0)
  end
  begin
     id 25 
     name rhumerus
     direction -1 -4.48971e-011 -6.43969e-018  
     length 4.88702   
     axis 180 30 90   XYZ
    dof rx ry rz
    limits (-90.0 60.0)
           (-90.0 90.0)
           (-90.0 90.0)
  end
  begin
     id 26 
     name rradius
     direction -1 -4.48987e-011 5.46662e-027   
     length 3.22603   
     axis 180 30 90   XYZ
    dof rx
    limits (-10.0 170.0)
  end
  begin
     id 27 
     name rwrist
     direction -1 -4.48956e-011 4.72476e-027   
     length 1.61302   
     axis -2.72261e-015 -90 -90   XYZ
    dof ry
    limits (-180.0 0.0)
  end
  begin
     id 28
     name rhand
     direction -1 -4.4889e-011 9.43571e-027   
     length 0.716293   
     axis -6.0311e-015 -90 -90   XYZ
    dof rx rz
    limits (-90.0 90.0)
           (-45.0 45.0)
  end
  begin
     id 29
     name rfingers
     direction -1 -4.48887e-011 1.88701e-026   
     length 0.577494   
     axis -1.20625e-014 -90 -90   XYZ
    dof rx
    limits (0.0 90.0)
  end
  begin
     id 30
     name rthumb
     direction -0.707107 -6.34825e-011 0.707107   
     length 0.829169   
     axis -90 -45 -6.32835e-014   XYZ
    dof rx rz
    limits (-45.0 45.0)
           (-45.0 45.0)
  end
:hierarchy
  begin
    root lhipjoint rhipjoint lowerback
    lhipjoint lfemur
    lfemur ltibia
    ltibia lfoot
    lfoot ltoes
    rhipjoint rfemur
    rfemur rtibia
    rtibia rfoot
    rfoot rtoes
    lowerback upperback
    upperback thorax
    thorax lowerneck lclavicle rclavicle
    lowerneck upperneck
    upperneck head
    lclavicle lhumerus
    lhumerus lradius
    lradius lwrist
    lwrist lhand lthumb
    lhand lfingers
    rclavicle rhumerus
    rhumerus rradius
    rradius rwrist
    rwrist rhand rthumb
    rhand rfingers
  end

#!OML:ASF F:\VICON\USERDATA\INSTALL\rory3\rory3.ASF
:FULLY-SPECIFIED
:DEGREES
486
root 1.38752 18.4878 -0.461658 176.954 91.6769 167.177
lowerback -6.39872 -1.8228 -1.74325
upperback -2.20707 -2.27245 -0.063936
thorax 1.37644 -1.11284 0.741487
lowerneck -15.7458 -5.96367 -2.31882
upperneck 28.2542 -7.98262 1.7269
head 12.0665 -3.42224 -0.118861
rclavicle 2.63017e-014 1.27222e-014
rhumerus -32.4437 -13.598 -82.1724
rradius 40.0478
rwrist -154.299
rhand -19.3119 -4.67415
rfingers 7.12502
rthumb 7.00405 -34.5383
lclavicle 2.63017e-014 1.27222e-014
lhumerus -35.8567 -11.2381 87.8832
lradius 37.4866
lwrist 17.7937
lhand -10.2106 28.1392
lfingers 7.12502
lthumb 15.7808 57.5159
rfemur -4.05869 -9.15047 15.5662
rtibia 1.59028e-014
rfoot -5.3993 -0.159213
rtoes -18.0193
lfemur -13.2362 10.1633 -19.6014
ltibia 20.2004
lfoot -16.1116 -3.01904
ltoes -25.3127
487
root 1.38325 18.4903 -0.460193 175.701 91.5569 165.842
lowerback -6.46963 -1.83344 -1.6747
upperback -2.20334 -2.29013 -0.0166638
thorax 1.41942 -1.12193 0.747924
lowerneck -15.8072 -5.54362 -2.11575
upperneck 27.7129 -7.37512 1.52563
head 11.8326 -3.17361 -0.13052
rclavicle -3.05756e-014 1.59028e-015
rhumerus -32.2682 -13.4865 -82.3424
rradius 40.2395
rwrist -153.979
rhand -19.4599 -4.3608
rfingers 7.12502
rthumb 6.86118 -34.2296
lclavicle -3.05756e-014 1.59028e-015
lhumerus -35.8617 -11.4892 88.0584
lradius 37.5913
lwrist 17.8985
lhand -10.2021 28.0742
lfingers 7.12502
lthumb 15.789 57.4503
rfemur -4.14285 -9.27695 15.6198
rtibia 2.8625e-014
rfoot -5.37246 -0.153851
rtoes -17.8275
lfemur -13.3101 10.1356 -19.5897
ltibia 20.1108
lfoot -16.012 -3.13827
ltoes -24.9521
488
root 1.37949 18.4894 -0.458824 179.189 91.449 169.289
lowerback -6.50156 -1.84172 -1.72364
upperback -2.17584 -2.29811 0.00605515
thorax 1.46848 -1.12652 0.796384
lowerneck -15.9387 -5.11776 -1.89182
upperneck 27.2297 -6.74851 1.25065
head 11.6366 -2.91979 -0.173748
rclavicle 3.60297e-015 1.07344e-014
rhumerus -32.0361 -13.3487 -82.459
rradius 40.2955
rwrist -153.955
rhand -19.6222 -4.28846
rfingers 7.12502
rthumb 6.70452 -34.1623
lclavicle 3.60297e-015 1.07344e-014
lhumerus -35.8649 -11.6577 88.2338
lradius 37.7039
lwrist 18.0095
lhand -10.367 28.0244
lfingers 7.12502
lthumb 15.6303 57.413
rfemur -4.18365 -9.38498 15.5203
rtibia 3.18055e-015
rfoot -5.39506 -0.147789
rtoes -17.7909
lfemur -13.3475 10.1371 -19.7067
ltibia 20.0566
lfoot -15.962 -3.28963
ltoes -24.5541
489
root 1.37321 18.4901 -0.456464 180.267 91.4139 170.246
lowerback -6.52396 -1.8419 -1.73418
upperback -2.21317 -2.29799 0.0703466
thorax 1.44553 -1.12562 0.868321
lowerneck -16.1395 -4.70654 -1.73207
upperneck 26.9114 -6.13856 1.01173
head 11.5277 -2.66864 -0.199768
rclavicle -1.963e-014 -9.14409e-015
rhumerus -31.7872 -13.2293 -82.5943
rradius 40.4534
rwrist -153.434
rhand -20.2806 -3.79941
rfingers 7.12502
rthumb 6.0689 -33.6925
lclavicle -1.963e-014 -9.14409e-015
lhumerus -35.8894 -11.6259 88.388
lradius 37.7924
lwrist 17.9466
lhand -10.4472 27.9356
lfingers 7.12502
lthumb 15.553 57.3301
rfemur -4.33732 -9.4284 15.5245
rtibia 1.51076e-014
rfoot -5.39887 -0.160394
rtoes -17.9652
lfemur -13.5124 10.164 -19.7603
ltibia 20.0355
lfoot -15.8918 -3.37689
ltoes -24.4566
490
root 1.36368 18.4919 -0.454399 179.338 91.4952 169.142
lowerback -6.53123 -1.80473 -1.6363
upperback -2.30295 -2.2538 0.0985884
thorax 1.35336 -1.10162 0.847594
lowerneck -16.3413 -4.34005 -1.69156
upperneck 26.7225 -5.62458 0.997723
head 11.4857 -2.43932 -0.139189
rclavicle -2.35933e-014 7.95139e-016
rhumerus -31.7047 -13.2246 -82.693
rradius 40.1385
rwrist -154.122
rhand -19.3311 -4.54443
rfingers 7.12502
rthumb 6.98559 -34.4092
lclavicle -2.35933e-014 7.95139e-016
lhumerus -35.9751 -11.6248 88.4533
lradius 37.8836
lwrist 17.8608
lhand -10.2969 27.9975
lfingers 7.12502
lthumb 15.6978 57.3808
rfemur -4.59112 -9.35728 15.6118
rtibia 3.18055e-014
rfoot -5.31945 -0.198316
rtoes -18.3339
lfemur -13.7365 10.2623 -19.7688
ltibia 20.0043
lfoot -15.8196 -3.34298
ltoes -24.6116
491
root 1.35445 18.4949 -0.450828 178.294 91.5689 167.947
lowerback -6.57198 -1.74388 -1.51231
upperback -2.35156 -2.17906 0.107148
thorax 1.31973 -1.06348 0.792516
lowerneck -16.4872 -4.00009 -1.55594
upperneck 26.4203 -5.14058 0.852367
head 11.3828 -2.23372 -0.144683
rclavicle 2.57178e-015 -4.17448e-015
rhumerus -31.5278 -13.1302 -82.9011
rradius 40.1056
rwrist -153.984
rhand -19.2505 -4.47941
rfingers 7.12502
rthumb 7.06334 -34.3416
lclavicle 2.57178e-015 -4.17448e-015
lhumerus -35.9693 -11.7652 88.5332
lradius 37.9011
lwrist 17.7061
lhand -10.1058 28.4231
lfingers 7.12502
lthumb 15.8818 57.7918
rfemur -4.8101 -9.29197 15.7014
rtibia 1.98785e-014
rfoot -5.28394 -0.220786
rtoes -18.4301
lfemur -13.9392 10.3237 -19.7527
ltibia 19.9836
lfoot -15.7502 -3.3073
ltoes -24.6479
492
root 1.34843 18.4958 -0.448295 180.687 91.542 170.245
lowerback -6.6207 -1.70717 -1.49696
upperback -2.34733 -2.13013 0.108364
thorax 1.34936 -1.03921 0.787445
lowerneck -16.6079 -3.69293 -1.40295
upperneck 26.0105 -4.68668 0.616916
head 11.2336 -2.05373 -0.189228
rclavicle -6.62201e-015 1.05356e-014
rhumerus -31.3366 -13.0445 -83.0299
rradius 40.086
rwrist -153.975
rhand -19.0991 -4.58328
rfingers 7.12502
rthumb 7.20953 -34.4405
lclavicle -6.62201e-015 1.05356e-014
lhumerus -35.8878 -11.9031 88.6673
lradius 37.8786
lwrist 17.4963
lhand -10.1229 28.7088
lfingers 7.12502
lthumb 15.8653 58.0789
rfemur -4.92627 -9.3243 15.663
rtibia 2.06736e-014
rfoot -5.22494 -0.268723
rtoes -18.2332
lfemur -14.0683 10.392 -19.8469
ltibia 19.9607
lfoot -15.6768 -3.39844
ltoes -24.656
493
root 1.34337 18.4958 -0.444424 184.239 91.4863 173.669
lowerback -6.67929 -1.66826 -1.53859
upperback -2.37461 -2.07357 0.100051
thorax 1.35353 -1.01027 0.805432
lowerneck -16.7011 -3.41787 -1.20957
upperneck 25.6369 -4.28568 0.359167
head 11.0946 -1.89454 -0.256037
rclavicle 1.47598e-014 -5.96354e-016
rhumerus -31.1666 -12.877 -83.1631
rradius 40.0657
rwrist -154.121
rhand -18.9979 -4.55014
rfingers 7.12502
rthumb 7.30716 -34.404
lclavicle 1.47598e-014 -5.96354e-016
lhumerus -35.8472 -12.1166 88.8246
lradius 37.902
lwrist 17.4324
lhand -10.1693 28.6557
lfingers 7.12502
lthumb 15.8206 58.0293
rfemur -5.06765 -9.39199 15.6065
rtibia 3.97569e-015
rfoot -5.21234 -0.285592
rtoes -18.2864
lfemur -14.2123 10.4293 -19.978
ltibia 19.9011
lfoot -15.6168 -3.43563
ltoes -25.0304
494
root 1.34106 18.4957 -0.439453 185.945 91.4383 175.297
lowerback -6.72187 -1.64639 -1.53473
upperback -2.39064 -2.04322 0.0930993
thorax 1.35949 -0.994776 0.797599
lowerneck -16.7144 -3.13812 -0.994572
upperneck 25.24 -3.88931 0.111084
head 10.934 -1.73367 -0.321979
rclavicle 3.13086e-015 1.98785e-015
rhumerus -30.9896 -12.5801 -83.3826
rradius 40.0414
rwrist -154.279
rhand -19.039 -4.2733
rfingers 7.12502
rthumb 7.26752 -34.1285
lclavicle 3.13086e-015 1.98785e-015
lhumerus -35.8662 -12.3323 88.9309
lradius 37.938
lwrist 17.4574
lhand -10.0731 28.4757
lfingers 7.12502
lthumb 15.9132 57.8419
rfemur -5.15568 -9.44635 15.6024
rtibia 1.03368e-014
rfoot -5.21734 -0.30877
rtoes -18.7103
lfemur -14.2802 10.4514 -20.0314
ltibia 19.8213
lfoot -15.5575 -3.49792
ltoes -24.9003
495
root 1.33838 18.497 -0.434248 187.819 91.3917 177.081
lowerback -6.79847 -1.60838 -1.48905
upperback -2.38163 -1.99273 0.0386611
thorax 1.40652 -0.969942 0.717814
lowerneck -16.776 -2.865 -0.691605
upperneck 24.8633 -3.53004 -0.138631
head 10.7919 -1.58038 -0.409688
rclavicle 1.7667e-014 7.7526e-015
rhumerus -30.8118 -12.5534 -83.6105
rradius 39.9884
rwrist -154.238
rhand -19.4295 -4.34506
rfingers 7.12502
rthumb 6.89057 -34.2129
lclavicle 1.7667e-014 7.7526e-015
lhumerus -35.8367 -12.5784 88.9715
lradius 37.9718
lwrist 17.4913
lhand -10.1615 28.325
lfingers 7.12502
lthumb 15.8281 57.698
rfemur -5.2464 -9.50391 15.5843
rtibia -3.02153e-014
rfoot -5.22204 -0.326218
rtoes -18.3062
lfemur -14.3698 10.4854 -20.0879
ltibia 19.7543
lfoot -15.514 -3.59271
ltoes -24.6968
496
root 1.33483 18.4983 -0.431604 186.626 91.333 175.781
lowerback -6.82912 -1.56688 -1.34736
upperback -2.4294 -1.94457 0.00916509
thorax 1.36755 -0.945189 0.612039
lowerneck -16.7941 -2.6424 -0.435162
upperneck 24.5382 -3.2263 -0.397894
head 10.6642 -1.45633 -0.500488
rclavicle 1.32316e-014 1.98785e-016
rhumerus -30.722 -12.3979 -83.8701
rradius 40.2796
rwrist -153.37
rhand -21.1062 -3.81837
rfingers 7.12502
rthumb 5.27179 -33.7328
lclavicle 1.32316e-014 1.98785e-016
lhumerus -35.8598 -12.7648 89.0301
lradius 38.0017
lwrist 17.5817
lhand -10.316 28.3389
lfingers 7.12502
lthumb 15.6794 57.7236
rfemur -5.36678 -9.56568 15.6441
rtibia -1.59028e-015
rfoot -5.1797 -0.323145
rtoes -17.8011
lfemur -14.5008 10.4849 -20.0705
ltibia 19.7118
lfoot -15.4562 -3.66857
ltoes -24.5291
497
root 1.33001 18.4995 -0.427697 184.973 91.2663 174.04
lowerback -6.816 -1.51991 -1.21431
upperback -2.48872 -1.88966 -0.00295486
thorax 1.29343 -0.916891 0.530839
lowerneck -16.7411 -2.4595 -0.279646
upperneck 24.1814 -2.96419 -0.607848
head 10.5165 -1.3544 -0.56116
rclavicle 1.70706e-014 0
rhumerus -30.611 -12.3379 -84.0167
rradius 40.1931
rwrist -153.221
rhand -21.6619 -3.96298
rfingers 7.12502
rthumb 4.7352 -33.8901
lclavicle 1.70706e-014 0
lhumerus -35.8778 -12.9626 89.1249
lradius 37.9867
lwrist 17.5536
lhand -10.4657 28.3792
lfingers 7.12502
lthumb 15.5352 57.7752
rfemur -5.46486 -9.63095 15.7277
rtibia -1.11319e-014
rfoot -5.18571 -0.334354
rtoes -17.9874
lfemur -14.6106 10.442 -20.0399
ltibia 19.6752
lfoot -15.3731 -3.62154
ltoes -24.5185
498
root 1.32724 18.4999 -0.423087 185.523 91.1856 174.526
lowerback -6.82394 -1.51446 -1.20304
upperback -2.52107 -1.88322 0.0429948
thorax 1.26561 -0.912956 0.572552
lowerneck -16.7212 -2.26976 -0.298083
upperneck 23.8664 -2.6656 -0.734445
head 10.3969 -1.24021 -0.559069
rclavicle -1.13804e-014 -1.39149e-015
rhumerus -30.4305 -11.9084 -84.1446
rradius 40.0454
rwrist -153.449
rhand -21.6324 -4.23009
rfingers 7.12502
rthumb 4.76369 -34.1565
lclavicle -1.13804e-014 -1.39149e-015
lhumerus -35.8757 -12.8973 89.227
lradius 37.9918
lwrist 17.4
lhand -10.4132 28.46
lfingers 7.12502
lthumb 15.5857 57.852
rfemur -5.5232 -9.71416 15.7515
rtibia 5.56597e-015
rfoot -5.20774 -0.369846
rtoes -18.2584
lfemur -14.7081 10.3631 -20.0508
ltibia 19.6832
lfoot -15.3244 -3.58024
ltoes -24.3195
499
root 1.32129 18.5014 -0.41934 190.978 91.1179 179.865
lowerback -6.86821 -1.50525 -1.27329
upperback -2.54658 -1.86499 0.0495943
thorax 1.26597 -0.903044 0.619357
lowerneck -16.7981 -2.0961 -0.230506
upperneck 23.6247 -2.39731 -0.926525
head 10.321 -1.13864 -0.600903
rclavicle 4.3422e-015 -4.37326e-015
rhumerus -30.1907 -11.29 -84.3902
rradius 40.1427
rwrist -153.413
rhand -21.9371 -3.98126
rfingers 7.12502
rthumb 4.46951 -33.9141
lclavicle 4.3422e-015 -4.37326e-015
lhumerus -35.8012 -12.8716 89.3211
lradius 37.9622
lwrist 17.3204
lhand -10.3211 28.3955
lfingers 7.12502
lthumb 15.6744 57.7806
rfemur -5.66891 -9.80385 15.6825
rtibia 1.90833e-014
rfoot -5.1777 -0.405496
rtoes -18.4513
lfemur -14.8814 10.3209 -20.1767
ltibia 19.6979
lfoot -15.2582 -3.65374
ltoes -24.2366
500
root 1.31331 18.5022 -0.418818 192.27 91.102 181.086
lowerback -6.85591 -1.44585 -1.16271
upperback -2.54722 -1.79239 -0.00183831
thorax 1.25202 -0.867236 0.510705
lowerneck -16.9598 -1.93067 -0.0590992
upperneck 23.4573 -2.18441 -1.06554
head 10.288 -1.04586 -0.650554
rclavicle 5.53491e-015 1.59028e-015
rhumerus -29.97 -10.708 -84.7688
rradius 40.233
rwrist -153.23
rhand -21.7777 -3.77389
rfingers 7.12502
rthumb 4.62339 -33.7034
lclavicle 5.53491e-015 1.59028e-015
lhumerus -35.675 -13.0306 89.3647
lradius 37.8664
lwrist 17.3294
lhand -10.494 28.2447
lfingers 7.12502
lthumb 15.5079 57.6428
rfemur -5.78552 -9.8289 15.6796
rtibia 6.36111e-015
rfoot -5.14559 -0.396234
rtoes -18.5733
lfemur -14.9964 10.235 -20.2146
ltibia 19.7027
lfoot -15.3075 -3.55955
ltoes -24.6595
